<?xml version="1.0" standalone="no"?>
<!DOCTYPE svg PUBLIC "-//W3C//DTD SVG 20010904//EN" "http://www.w3.org/TR/2001/REC-SVG-20010904/DTD/svg10.dtd">
<!-- Created using Krita: https://krita.org -->
<svg xmlns="http://www.w3.org/2000/svg" 
    xmlns:xlink="http://www.w3.org/1999/xlink"
    xmlns:krita="http://krita.org/namespaces/svg/krita"
    xmlns:sodipodi="http://sodipodi.sourceforge.net/DTD/sodipodi-0.dtd"
    width="737.28pt"
    height="737.28pt"
    viewBox="0 0 737.28 737.28">
<defs>
  <linearGradient id="gradient0" gradientUnits="objectBoundingBox" x1="0.500387925370457" y1="0.0318670634223392" x2="0.499612074629546" y2="0.976099702433245" spreadMethod="pad">
   <stop stop-color="#f8e7d5" offset="0.599315047264099" stop-opacity="1"/>
   <stop stop-color="#ffda5a" offset="1" stop-opacity="1"/>
  </linearGradient>
  <linearGradient id="gradient1" gradientUnits="objectBoundingBox" x1="0.488804128555667" y1="0.0138780224258759" x2="0.5005696947366" y2="0.980570768603774" spreadMethod="pad">
   <stop stop-color="#f1e2c5" offset="0.492805749177933" stop-opacity="1"/>
   <stop stop-color="#e0c054" offset="1" stop-opacity="1"/>
  </linearGradient>
  <linearGradient id="gradient2" gradientUnits="objectBoundingBox" x1="0.500387925370457" y1="0.0318670634223392" x2="0.499612074629546" y2="0.976099702433245" spreadMethod="pad">
   <stop stop-color="#f8e7d5" offset="0.599315047264099" stop-opacity="1"/>
   <stop stop-color="#ffda5a" offset="1" stop-opacity="1"/>
  </linearGradient>
  <linearGradient id="gradient3" gradientUnits="objectBoundingBox" x1="0.488804128555667" y1="0.0138780224258759" x2="0.5005696947366" y2="0.980570768603774" spreadMethod="pad">
   <stop stop-color="#f1e2c5" offset="0.492805749177933" stop-opacity="1"/>
   <stop stop-color="#e0c054" offset="1" stop-opacity="1"/>
  </linearGradient>
  <linearGradient id="gradient4" gradientUnits="objectBoundingBox" x1="0.500387925370457" y1="0.0318670634223392" x2="0.499612074629546" y2="0.976099702433245" spreadMethod="pad">
   <stop stop-color="#f8e7d5" offset="0.599315047264099" stop-opacity="1"/>
   <stop stop-color="#ffda5a" offset="1" stop-opacity="1"/>
  </linearGradient>
  <linearGradient id="gradient5" gradientUnits="objectBoundingBox" x1="0.48522464044387" y1="0" x2="0.514775359556129" y2="0.970788526066758" spreadMethod="pad">
   <stop stop-color="#f1e2c5" offset="0.492805749177933" stop-opacity="1"/>
   <stop stop-color="#e0c054" offset="1" stop-opacity="1"/>
  </linearGradient>
  <linearGradient id="gradient6" gradientUnits="objectBoundingBox" x1="0.500387925370457" y1="0.0318670634223392" x2="0.499612074629546" y2="0.976099702433245" spreadMethod="pad">
   <stop stop-color="#f8e7d5" offset="0.599315047264099" stop-opacity="1"/>
   <stop stop-color="#ffda5a" offset="1" stop-opacity="1"/>
  </linearGradient>
  <linearGradient id="gradient7" gradientUnits="objectBoundingBox" x1="0.488804128555667" y1="0.0138780224258759" x2="0.5005696947366" y2="0.980570768603774" spreadMethod="pad">
   <stop stop-color="#f1e2c5" offset="0.492805749177933" stop-opacity="1"/>
   <stop stop-color="#e0c054" offset="1" stop-opacity="1"/>
  </linearGradient>
  <linearGradient id="gradient8" gradientUnits="objectBoundingBox" x1="0.500387925370457" y1="0.0318670634223392" x2="0.499612074629546" y2="0.976099702433245" spreadMethod="pad">
   <stop stop-color="#f8e7d5" offset="0.599315047264099" stop-opacity="1"/>
   <stop stop-color="#ffda5a" offset="1" stop-opacity="1"/>
  </linearGradient>
  <linearGradient id="gradient9" gradientUnits="objectBoundingBox" x1="0.488804128555667" y1="0.0138780224258759" x2="0.5005696947366" y2="0.980570768603774" spreadMethod="pad">
   <stop stop-color="#f1e2c5" offset="0.492805749177933" stop-opacity="1"/>
   <stop stop-color="#e0c054" offset="1" stop-opacity="1"/>
  </linearGradient>
  <linearGradient id="gradient10" gradientUnits="objectBoundingBox" x1="0.500387925370457" y1="0.0318670634223392" x2="0.499612074629546" y2="0.976099702433245" spreadMethod="pad">
   <stop stop-color="#f8e7d5" offset="0.599315047264099" stop-opacity="1"/>
   <stop stop-color="#ffda5a" offset="1" stop-opacity="1"/>
  </linearGradient>
  <linearGradient id="gradient11" gradientUnits="objectBoundingBox" x1="0.488804128555667" y1="0.0138780224258759" x2="0.5005696947366" y2="0.980570768603774" spreadMethod="pad">
   <stop stop-color="#f1e2c5" offset="0.492805749177933" stop-opacity="1"/>
   <stop stop-color="#e0c054" offset="1" stop-opacity="1"/>
  </linearGradient>
  <linearGradient id="gradient12" gradientUnits="objectBoundingBox" x1="0.500387925370457" y1="0.0318670634223392" x2="0.499612074629546" y2="0.976099702433245" spreadMethod="pad">
   <stop stop-color="#f8e7d5" offset="0.599315047264099" stop-opacity="1"/>
   <stop stop-color="#ffda5a" offset="1" stop-opacity="1"/>
  </linearGradient>
  <linearGradient id="gradient13" gradientUnits="objectBoundingBox" x1="0.488804128555667" y1="0.0138780224258759" x2="0.5005696947366" y2="0.980570768603774" spreadMethod="pad">
   <stop stop-color="#f1e2c5" offset="0.492805749177933" stop-opacity="1"/>
   <stop stop-color="#e0c054" offset="1" stop-opacity="1"/>
  </linearGradient>
  <linearGradient id="gradient14" gradientUnits="objectBoundingBox" x1="0.500387925370457" y1="0.0318670634223392" x2="0.499612074629546" y2="0.976099702433245" spreadMethod="pad">
   <stop stop-color="#f8e7d5" offset="0.599315047264099" stop-opacity="1"/>
   <stop stop-color="#ffda5a" offset="1" stop-opacity="1"/>
  </linearGradient>
  <linearGradient id="gradient15" gradientUnits="objectBoundingBox" x1="0.488804128555667" y1="0.0138780224258759" x2="0.5005696947366" y2="0.980570768603774" spreadMethod="pad">
   <stop stop-color="#f1e2c5" offset="0.492805749177933" stop-opacity="1"/>
   <stop stop-color="#e0c054" offset="1" stop-opacity="1"/>
  </linearGradient>
  <linearGradient id="gradient16" gradientUnits="objectBoundingBox" x1="0.500387925370457" y1="0.0318670634223392" x2="0.499612074629546" y2="0.976099702433245" spreadMethod="pad">
   <stop stop-color="#f8e7d5" offset="0.599315047264099" stop-opacity="1"/>
   <stop stop-color="#ffda5a" offset="1" stop-opacity="1"/>
  </linearGradient>
  <linearGradient id="gradient17" gradientUnits="objectBoundingBox" x1="0.488804128555667" y1="0.0138780224258759" x2="0.5005696947366" y2="0.980570768603774" spreadMethod="pad">
   <stop stop-color="#f1e2c5" offset="0.492805749177933" stop-opacity="1"/>
   <stop stop-color="#e0c054" offset="1" stop-opacity="1"/>
  </linearGradient>
 </defs>
<path id="shape0" transform="translate(58.8599994746747, 100.401609109972)" fill="#000000" fill-rule="evenodd" stroke="#000000" stroke-width="5.8896" stroke-linecap="square" stroke-linejoin="bevel" d="M0 461.199L1.62 207.399C158.846 -71.1419 465.725 -67.4738 615.06 208.479L620.46 455.799C588.255 565.731 441.34 600.021 308.34 599.439C172.971 599.795 35.3913 569.828 0 461.199Z" sodipodi:nodetypes="cccccc"/><path id="shape1" transform="translate(21.59999980722, 159.839998573428)" fill="#000000" fill-rule="evenodd" stroke="#000000" stroke-width="5.8896" stroke-linecap="square" stroke-linejoin="bevel" d="M38.88 151.2L0 87.48L68.04 0L137.16 32.4Z" sodipodi:nodetypes="ccccc"/><path id="shape2" transform="translate(197.639998236064, 41.0399996337181)" fill="#000000" fill-rule="evenodd" stroke="#000000" stroke-width="5.8896" stroke-linecap="square" stroke-linejoin="bevel" d="M7.56 117.72L0 35.64L108 0L146.88 74.52Z" sodipodi:nodetypes="ccccc"/><path id="shape3" transform="translate(391.499996505863, 42.1199996240791)" fill="#000000" fill-rule="evenodd" stroke="#000000" stroke-width="5.8896" stroke-linecap="square" stroke-linejoin="bevel" d="M0 69.66L39.42 0L149.58 35.64L140.94 115.56Z" sodipodi:nodetypes="ccccc"/><path id="shape4" transform="translate(575.639994862414, 154.439998621623)" fill="#000000" fill-rule="evenodd" stroke="#000000" stroke-width="5.8896" stroke-linecap="square" stroke-linejoin="bevel" d="M0 38.34L69.12 0L139.32 95.04L93.96 165.24Z" sodipodi:nodetypes="ccccc"/><path id="shape5" transform="translate(75.3299948215564, 115.95656869891)" fill="#ffffff" fill-rule="evenodd" stroke="none" stroke-width="0.72" stroke-linecap="square" stroke-linejoin="bevel" d="M0 191.753C139.8 -60.3666 436.47 -67.5966 584.91 192.203L586.17 233.963C556.558 236.784 517.497 240.847 487.885 243.815C487.077 236.824 483.478 231.018 477.81 231.623C288.992 219.575 290.852 220.096 105.93 232.883C97.1153 232.159 97.2781 238.004 97.1034 244.03C70.8781 241.874 27.0353 238.279 0.81 236.123" sodipodi:nodetypes="cccccccc"/><path id="shape6" transform="translate(74.8799948684881, 369.359970567952)" fill="#ffffff" fill-rule="evenodd" stroke="none" stroke-width="0.72" stroke-linecap="square" stroke-linejoin="bevel" d="M0 0L97.2 9.36L100.08 196.56C100.436 202.345 104.245 205.7 109.44 208.08L228.6 216.9L358.2 215.82C397.2 213.48 436.2 211.14 475.2 208.8C481.526 206.664 485.431 203.014 486 197.28L489.6 11.52L586.08 1.44L586.08 172.08C572.534 285.062 417.518 312.64 298.08 316.8C198.092 310.589 29.1915 303.725 0.72 177.84L0 138.24" sodipodi:nodetypes="cccccccccccccc"/><path id="shape7" transform="translate(35.369999684317, 172.079998464158)" fill="#ffffff" fill-rule="evenodd" stroke="none" stroke-width="0.72" stroke-linecap="square" stroke-linejoin="bevel" d="M42.21 138.87C26.8703 118.47 12.4678 98.07 0 77.67C17.0756 49.7777 35.4492 22.8949 58.95 0C80.7227 10.7473 101.237 22.7533 121.59 34.92L39.51 135.36" sodipodi:nodetypes="ccccc"/><path id="shape8" transform="translate(212.399998104295, 56.1599994987629)" fill="#ffffff" fill-rule="evenodd" stroke="none" stroke-width="0.72" stroke-linecap="square" stroke-linejoin="bevel" d="M5.04 103.68C2.69513 78.3876 0.906579 53.3733 0 28.8C28.1548 15.4494 57.526 6.15324 87.84 0C98.2247 19.6272 107.232 32.7115 120.24 64.8L5.04 103.68" sodipodi:nodetypes="ccccc"/><path id="shape9" transform="translate(403.019996451261, 55.3499995301321)" fill="#ffffff" fill-rule="evenodd" stroke="none" stroke-width="0.72" stroke-linecap="square" stroke-linejoin="bevel" d="M0 66.24C9.99802 43.5682 20.9049 21.2338 32.4 0C64.126 7.73791 95.1429 16.8943 123.3 31.77L116.1 105.03L1.62 67.05" sodipodi:nodetypes="ccccc"/><path id="shape10" transform="translate(580.85999486401, 171.719998499558)" fill="#ffffff" fill-rule="evenodd" stroke="none" stroke-width="0.72" stroke-linecap="square" stroke-linejoin="bevel" d="M0 36C20.4364 22.6327 41.4844 10.4888 63.36 0C84.4845 22.9155 104.683 48.9171 120.96 77.76L79.38 138.6L1.62 34.92" sodipodi:nodetypes="ccccc"/><path id="shape11" transform="translate(149.759994854641, 291.052967542893)" fill="#7f0000" fill-rule="evenodd" stroke="#7f0000" stroke-width="0.72" stroke-linecap="square" stroke-linejoin="bevel" d="M170.46 77.407C179.129 76.9848 185.19 68.1069 188.1 56.167C210.558 60.3773 233.505 61.6561 257.4 57.247C260.798 71.2116 267.873 77.8215 277.02 80.287C332.574 79.6753 385.318 88.5638 437.94 66.967C409.149 52.6639 410.393 31.0493 391.32 8.82702C367.951 -7.12794 356.345 1.91432 344.16 9.72702C316.882 -3.11886 314.75 10.9761 306.36 18.367C272.196 5.92608 268.599 20.6555 259.02 30.067C236.213 38.6805 211.086 38.0114 183.96 29.347C171.951 18.9418 162.827 3.72883 134.28 20.887C121.816 2.81353 108.401 3.75095 94.5 14.407C80.4681 -4.68429 55.1473 -0.274169 40.14 15.667C23.963 26.4619 22.189 57.4319 0 68.407C37.535 79.921 94.355 82.921 170.46 77.407Z" sodipodi:nodetypes="ccccccccccccccc"/><path id="shape12" transform="translate(158.132395520321, 378.539985372313)" fill="#7f0000" fill-rule="evenodd" stroke="#7f0000" stroke-width="0.72" stroke-linecap="square" stroke-linejoin="bevel" d="M14.3976 0C1.99623 62.8347 -6.19697 119.47 6.0276 186.3C7.99534 205.04 20.0697 207.837 30.3276 212.76C74.0889 219.806 100.027 219.071 136.708 217.62C152.926 232.851 168.369 235.686 183.148 227.88C200.945 243.122 218.451 242.872 237.688 227.88C249.819 230.358 260.766 234.19 286.828 214.38C320.054 219.673 345.638 218.03 393.208 208.98C402.732 207.693 412.855 195.62 411.028 187.38C423.128 88.882 417.682 76.1186 406.168 1.62C403.009 57.8919 405.449 101.013 395.908 173.88C395.675 181.034 392.534 187.605 385.108 193.32C356.174 196.79 332.372 201.747 289.528 195.48C286.54 181.223 280.747 175.383 274.948 169.56L145.888 173.34C139.863 181.012 132.605 187.698 133.468 200.88C101.248 202.278 69.0276 202.408 36.8076 193.86C30.2613 194.372 21.0591 183.058 21.6876 174.96C12.9711 114.3 16.5264 60.66 14.3976 0Z" sodipodi:nodetypes="ccccccccccccccccccc"/><path id="shape01" transform="translate(203.174641772936, 587.113515812915)" fill="#7f0000" fill-rule="evenodd" stroke-opacity="0" stroke="#000000" stroke-width="0" stroke-linecap="square" stroke-linejoin="bevel" d="M0 6.14151C3.95319 8.75423 16.141 5.28206 17.5708 14.1471C14.3079 46.7172 54.9289 11.7289 61.4115 28.103C71.3966 36.2717 53.877 46.4404 59.6924 57.2038C63.7061 67.0328 69.5387 58.9931 71.3523 64.1619C77.7995 82.5366 72.6286 81.7005 70.4456 91.1364C94.8656 94.4276 73.1917 92.4898 96.5407 93.9354C97.0591 93.6924 103.407 35.6441 124.121 37.4646C130.938 47.7305 123.079 49.6503 127.534 59.0397C132.124 68.3031 141.218 63.6522 138.024 80.7105C136.364 84.9897 133.343 87.9784 133.863 97.3124C139.528 98.1109 173.976 100.285 179.094 98.7139C177.246 91.1856 170.628 89.7446 179.943 76.459C200.865 69.9066 204.128 87.1439 205.779 97.3762C212.747 96.8261 230.19 96.1542 237.983 94.4077C236.265 73.6332 162.97 52.6459 216.827 28.9369C241.96 17.873 236.325 40.3137 242.763 53.7142C246.951 62.4293 256.894 54.9717 260.502 65.247C262.373 70.5726 254.658 88.8503 259.858 91.0443C274.586 90.9546 301.86 83.0533 309.847 81.8826C322.216 69.7063 255.174 31.5781 272.02 19.0369C286.121 8.53888 308.989 38.6269 312.36 12.0772C313.641 1.9896 325.51 5.23225 333.299 0" sodipodi:nodetypes="ccccccccccccccccccccccc"/><path id="shape02" transform="matrix(0.998745764541157 0.0500689305967496 -0.0500689305967496 0.998745764541157 313.686609087787 398.880120039871)" fill="url(#gradient0)" fill-rule="evenodd" stroke="url(#gradient1)" stroke-width="7.2" stroke-linecap="square" stroke-linejoin="bevel" krita:marker-fill-method="auto" d="M25.3442 0C26.4822 30.0799 29.8007 129.736 50.1219 168.739C41.8992 194.132 12.6695 201.822 1.40899 168.627C-2.53952 141.269 0.722467 92.5615 25.3442 0Z" sodipodi:nodetypes="cccc"/><path id="shape011" transform="matrix(-0.997733459857362 0.0672899924287378 0.0672899924287378 0.997733459857362 422.463586102235 396.470515005458)" fill="url(#gradient2)" fill-rule="evenodd" stroke="url(#gradient3)" stroke-width="7.2" stroke-linecap="square" stroke-linejoin="bevel" krita:marker-fill-method="auto" d="M25.872 0C27.0337 30.0799 30.4213 129.736 51.1657 168.739C42.7718 194.132 12.9334 201.822 1.43834 168.627C-2.5924 141.269 0.73751 92.5615 25.872 0Z" sodipodi:nodetypes="cccc"/><path id="shape13" transform="translate(342.221441685426, 394.452162042211)" fill="url(#gradient4)" fill-rule="evenodd" stroke="url(#gradient5)" stroke-width="7.2" stroke-linecap="square" stroke-linejoin="bevel" krita:marker-fill-method="auto" d="M26.2473 0C34.3451 30.3249 52.2664 132.932 53.4186 179.885C46.5616 209.656 8.56822 216.234 0 179.766C0.676795 142.86 9.42588 82.9377 26.2473 0Z" sodipodi:nodetypes="cccc"/><path id="shape021" transform="matrix(-0.980195551929447 0.198032017557149 -0.198032017557149 -0.980195551929447 580.833780996225 465.678915035708)" fill="url(#gradient6)" fill-rule="evenodd" stroke="url(#gradient7)" stroke-width="7.2" stroke-linecap="square" stroke-linejoin="bevel" krita:marker-fill-method="auto" d="M31.1179 0C31.9775 20.4077 24.4188 49.7756 39.1248 102.971C46.7789 129.424 53.9991 122.324 52.9315 147.488C47.2376 176.947 17.169 172.251 6.36481 143.642C-1.83025 117.921 -8.94306 74.9456 31.1179 0Z" sodipodi:nodetypes="ccccc"/><path id="shape03" transform="matrix(-0.992300292036191 0.123855280165664 -0.123855280165664 -0.992300292036191 538.331420631759 485.928767266789)" fill="url(#gradient8)" fill-rule="evenodd" stroke="url(#gradient9)" stroke-width="7.2" stroke-linecap="square" stroke-linejoin="bevel" krita:marker-fill-method="auto" d="M33.6519 0C34.5815 21.6413 26.4073 52.7845 42.3108 109.195C50.5882 137.248 58.3964 129.718 57.2418 156.403C51.0842 187.643 18.5671 182.663 6.88311 152.325C-1.97929 125.049 -9.67131 79.4759 33.6519 0Z" sodipodi:nodetypes="ccccc"/><path id="shape04" transform="matrix(-0.99478835642336 0.101961394284952 -0.101961394284952 -0.99478835642336 497.884652067524 511.097830709577)" fill="url(#gradient10)" fill-rule="evenodd" stroke="url(#gradient11)" stroke-width="7.2" stroke-linecap="square" stroke-linejoin="bevel" krita:marker-fill-method="auto" d="M35.7267 0C36.7136 23.6797 28.0354 57.7564 44.9195 119.48C53.7072 150.176 61.9968 141.936 60.771 171.135C54.2338 205.318 19.7118 199.868 7.30749 166.673C-2.10132 136.828 -10.2676 86.962 35.7267 0Z" sodipodi:nodetypes="ccccc"/><path id="shape05" transform="matrix(1.03809744745659 0.198032017557149 0.209730121235596 -0.980195551929447 154.439994539028 465.805066394651)" fill="url(#gradient12)" fill-rule="evenodd" stroke="url(#gradient13)" stroke-width="7.2" stroke-linecap="square" stroke-linejoin="bevel" krita:marker-fill-method="auto" d="M31.1179 0C31.9775 20.4077 24.4188 49.7756 39.1248 102.971C46.7789 129.424 53.9991 122.324 52.9315 147.488C47.2376 176.947 17.169 172.251 6.36481 143.642C-1.83025 117.921 -8.94306 74.9456 31.1179 0Z" sodipodi:nodetypes="ccccc"/><path id="shape0111" transform="matrix(1.05091723610203 0.123855280165665 0.13117163196763 -0.992300292036191 199.453046033254 486.054919049422)" fill="url(#gradient14)" fill-rule="evenodd" stroke="url(#gradient15)" stroke-width="7.2" stroke-linecap="square" stroke-linejoin="bevel" krita:marker-fill-method="auto" d="M33.6519 0C34.5815 21.6413 26.4073 52.7845 42.3108 109.195C50.5882 137.248 58.3964 129.718 57.2418 156.403C51.0842 187.643 18.5671 182.663 6.88311 152.325C-1.97929 125.049 -9.67131 79.4759 33.6519 0Z" sodipodi:nodetypes="ccccc"/><path id="shape0211" transform="matrix(1.0535522748801 0.101961394284952 0.107984435287401 -0.994788356423359 242.289076691924 511.223982507291)" fill="url(#gradient16)" fill-rule="evenodd" stroke="url(#gradient17)" stroke-width="7.2" stroke-linecap="square" stroke-linejoin="bevel" krita:marker-fill-method="auto" d="M35.7267 0C36.7136 23.6797 28.0354 57.7564 44.9195 119.48C53.7072 150.176 61.9968 141.936 60.771 171.135C54.2338 205.318 19.7118 199.868 7.30749 166.673C-2.10132 136.828 -10.2676 86.962 35.7267 0Z" sodipodi:nodetypes="ccccc"/>
</svg>
